<svg xmlns="http://www.w3.org/2000/svg" xmlns:xlink="http://www.w3.org/1999/xlink" width="500" zoomAndPan="magnify" viewBox="0 0 375 374.999991" height="500" preserveAspectRatio="xMidYMid meet" version="1.0"><defs><clipPath id="49358b9167"><path d="M 28 203.914062 L 347 203.914062 L 347 374 L 28 374 Z M 28 203.914062 " clip-rule="nonzero"/></clipPath><clipPath id="07d9248bc4"><path d="M 101.828125 0.00390625 L 314.828125 0.00390625 L 314.828125 273.003906 L 101.828125 273.003906 Z M 101.828125 0.00390625 " clip-rule="nonzero"/></clipPath></defs><g clip-path="url(#49358b9167)"><path fill="#000000" d="M 28.25 269.296875 C 28.25 298.800781 69.5 322.609375 135.902344 331.492188 C 140.429688 332.164062 144.789062 328.8125 145.289062 324.285156 C 145.960938 319.757812 142.609375 315.398438 138.082031 314.894531 C 77.046875 306.683594 45.019531 285.726562 45.019531 269.296875 C 45.019531 268.457031 45.019531 267.621094 45.1875 266.78125 C 45.355469 265.777344 45.6875 264.769531 46.023438 263.765625 C 46.527344 262.589844 47.03125 261.417969 47.703125 260.410156 C 48.371094 259.238281 49.378906 258.0625 50.214844 257.058594 C 51.390625 255.71875 52.5625 254.542969 53.738281 253.539062 C 55.078125 252.195312 56.757812 251.023438 58.265625 249.847656 C 59.941406 248.675781 61.785156 247.335938 63.628906 246.328125 C 65.644531 245.15625 67.65625 243.980469 69.835938 242.808594 C 72.183594 241.632812 74.53125 240.460938 76.878906 239.457031 C 79.394531 238.28125 82.074219 237.277344 84.757812 236.269531 C 87.609375 235.265625 90.460938 234.257812 93.308594 233.421875 C 96.328125 232.414062 99.347656 231.574219 102.53125 230.738281 C 105.71875 229.898438 109.070312 229.0625 112.257812 228.390625 C 115.613281 227.550781 119.132812 226.882812 122.484375 226.210938 C 126.007812 225.539062 129.695312 224.871094 133.386719 224.367188 C 137.074219 223.863281 140.929688 223.359375 144.621094 222.859375 C 148.476562 222.355469 152.332031 222.019531 156.355469 221.683594 C 160.382812 221.347656 164.40625 221.015625 168.429688 220.847656 C 172.453125 220.847656 176.648438 220.847656 180.839844 220.679688 C 185.03125 220.679688 189.390625 220.679688 193.582031 220.847656 C 197.773438 220.847656 201.796875 221.015625 205.992188 221.347656 C 210.015625 221.515625 214.039062 221.851562 218.0625 222.355469 C 221.921875 222.691406 225.945312 223.195312 229.800781 223.695312 C 233.488281 224.03125 237.179688 224.535156 241.035156 225.207031 C 244.558594 225.707031 248.246094 226.378906 251.765625 227.050781 C 255.289062 227.71875 258.640625 228.558594 262.164062 229.394531 C 265.347656 230.234375 268.703125 231.074219 271.886719 231.910156 C 274.90625 232.75 278.09375 233.585938 281.109375 234.59375 C 283.960938 235.597656 286.8125 236.605469 289.664062 237.609375 C 292.175781 238.617188 294.859375 239.789062 297.375 240.796875 C 299.722656 241.800781 302.070312 242.976562 304.417969 244.148438 C 306.597656 245.324219 308.777344 246.496094 310.789062 247.835938 C 312.632812 249.011719 314.480469 250.183594 316.15625 251.359375 C 317.832031 252.53125 319.339844 253.871094 320.683594 255.046875 C 322.023438 256.21875 323.199219 257.5625 324.371094 258.734375 C 325.378906 259.910156 326.214844 261.082031 327.054688 262.253906 C 327.726562 263.429688 328.394531 264.433594 328.898438 265.609375 C 329.234375 266.613281 329.570312 267.789062 329.738281 268.792969 C 330.074219 269.800781 330.074219 270.804688 330.074219 271.8125 C 329.738281 287.90625 298.382812 307.6875 239.359375 315.230469 L 239.359375 279.691406 C 239.359375 275.332031 234.160156 273.152344 230.976562 276.171875 L 185.867188 320.597656 C 183.855469 322.441406 183.855469 325.625 185.867188 327.636719 L 231.140625 372.0625 C 234.328125 375.082031 239.527344 372.902344 239.527344 368.542969 L 239.527344 332.164062 C 305.089844 324.285156 346.171875 301.316406 346.839844 272.144531 C 346.839844 269.96875 346.671875 267.621094 346.339844 265.441406 C 345.835938 263.261719 345.164062 261.25 344.324219 259.070312 C 343.488281 257.058594 342.3125 255.046875 341.140625 253.203125 C 339.964844 251.359375 338.457031 249.515625 336.949219 247.671875 C 335.4375 245.824219 333.59375 244.148438 331.917969 242.640625 C 330.074219 240.964844 328.230469 239.457031 326.214844 237.945312 C 324.035156 236.4375 321.855469 234.929688 319.675781 233.585938 C 317.160156 232.078125 314.648438 230.738281 312.300781 229.394531 C 309.785156 228.054688 307.101562 226.714844 304.25 225.539062 C 301.398438 224.199219 298.550781 223.027344 295.53125 222.019531 C 292.511719 220.847656 289.328125 219.671875 286.308594 218.667969 C 282.957031 217.660156 279.769531 216.65625 276.414062 215.648438 C 272.894531 214.644531 269.539062 213.804688 266.019531 212.96875 C 262.332031 212.128906 258.808594 211.289062 255.121094 210.621094 C 251.265625 209.949219 247.40625 209.277344 243.71875 208.609375 C 239.863281 207.9375 235.835938 207.433594 231.8125 206.933594 C 227.789062 206.429688 223.597656 205.925781 219.574219 205.589844 C 215.378906 205.253906 211.1875 204.921875 206.996094 204.585938 C 202.636719 204.417969 198.445312 204.082031 194.085938 204.082031 C 189.558594 203.914062 185.03125 203.914062 180.503906 203.914062 C 176.144531 203.914062 171.953125 204.082031 167.59375 204.25 C 163.398438 204.417969 159.207031 204.753906 155.015625 205.085938 C 150.992188 205.421875 146.800781 205.757812 142.777344 206.261719 C 138.917969 206.765625 134.894531 207.265625 130.871094 207.769531 C 127.011719 208.273438 123.324219 208.945312 119.46875 209.613281 C 115.777344 210.285156 112.257812 210.957031 108.570312 211.792969 C 105.046875 212.632812 101.695312 213.46875 98.171875 214.308594 C 94.820312 215.144531 91.632812 216.152344 88.28125 217.160156 C 85.261719 218.5 82.242188 219.503906 79.058594 220.679688 C 76.039062 221.851562 73.1875 222.859375 70.339844 224.199219 C 67.65625 225.371094 64.972656 226.546875 62.289062 227.886719 C 59.773438 229.0625 57.425781 230.570312 54.910156 231.910156 C 52.730469 233.253906 50.382812 234.761719 48.371094 236.269531 C 46.359375 237.777344 44.347656 239.289062 42.503906 240.964844 C 40.660156 242.640625 39.148438 244.316406 37.472656 245.992188 C 35.964844 247.671875 34.621094 249.515625 33.28125 251.527344 C 32.105469 253.539062 31.101562 255.550781 30.261719 257.5625 C 29.425781 259.574219 28.753906 261.753906 28.417969 263.933594 C 28.417969 265.777344 28.25 267.453125 28.25 269.296875 Z M 28.25 269.296875 " fill-opacity="1" fill-rule="evenodd"/></g><g clip-path="url(#07d9248bc4)"><path fill="#000000" d="M 277.664062 246.554688 L 277.664062 204.175781 C 278.4375 203.953125 279.214844 203.511719 279.882812 203.179688 C 285.207031 200.292969 290.976562 198.074219 296.855469 196.632812 C 302.179688 195.300781 308.28125 194.191406 311.609375 189.867188 C 314.273438 186.316406 314.382812 181.433594 314.382812 176.996094 C 314.382812 162.019531 314.382812 147.042969 314.382812 131.953125 C 314.382812 120.082031 314.382812 108.101562 314.382812 96.230469 C 314.382812 93.789062 314.828125 90.683594 314.273438 88.355469 C 313.71875 86.359375 312.277344 84.472656 310.832031 83.03125 C 307.839844 79.921875 303.734375 77.925781 299.738281 76.59375 C 293.304688 74.488281 286.316406 73.488281 280.4375 70.160156 C 279.546875 69.714844 278.660156 69.160156 277.773438 68.828125 L 277.773438 26.5625 C 277.773438 11.917969 265.902344 0.15625 251.371094 0.15625 L 128.113281 0.15625 C 113.46875 0.15625 101.710938 12.027344 101.710938 26.5625 L 101.710938 246.667969 C 101.710938 261.3125 113.582031 273.070312 128.113281 273.070312 L 251.148438 273.070312 C 265.792969 272.960938 277.664062 261.089844 277.664062 246.554688 Z M 121.457031 136.503906 C 121.457031 98.894531 151.964844 68.386719 189.574219 68.386719 C 227.183594 68.386719 257.691406 98.894531 257.691406 136.503906 C 257.691406 174.113281 227.183594 204.621094 189.574219 204.621094 C 151.964844 204.621094 121.457031 174.113281 121.457031 136.503906 Z M 235.726562 240.898438 C 235.726562 235.683594 239.941406 231.46875 245.15625 231.46875 C 250.371094 231.46875 254.585938 235.683594 254.585938 240.898438 C 254.585938 246.113281 250.371094 250.328125 245.15625 250.328125 C 239.941406 250.328125 235.726562 246.113281 235.726562 240.898438 Z M 235.726562 240.898438 " fill-opacity="1" fill-rule="nonzero"/></g><path fill="#000000" d="M 189.574219 177.882812 C 188.21875 177.882812 186.867188 177.816406 185.519531 177.683594 C 184.171875 177.550781 182.832031 177.351562 181.503906 177.089844 C 180.171875 176.824219 178.859375 176.496094 177.5625 176.101562 C 176.265625 175.707031 174.992188 175.253906 173.738281 174.734375 C 172.488281 174.214844 171.265625 173.636719 170.070312 172.996094 C 168.875 172.359375 167.710938 171.664062 166.585938 170.910156 C 165.457031 170.15625 164.371094 169.351562 163.324219 168.492188 C 162.277344 167.632812 161.273438 166.722656 160.316406 165.761719 C 159.355469 164.804688 158.449219 163.800781 157.585938 162.753906 C 156.726562 161.707031 155.921875 160.621094 155.167969 159.492188 C 154.414062 158.367188 153.71875 157.203125 153.082031 156.007812 C 152.441406 154.816406 151.863281 153.589844 151.34375 152.339844 C 150.824219 151.085938 150.371094 149.8125 149.976562 148.515625 C 149.582031 147.21875 149.253906 145.90625 148.988281 144.574219 C 148.726562 143.246094 148.527344 141.90625 148.394531 140.558594 C 148.261719 139.210938 148.195312 137.859375 148.195312 136.503906 C 148.195312 135.148438 148.261719 133.796875 148.394531 132.445312 C 148.527344 131.097656 148.726562 129.757812 148.988281 128.429688 C 149.253906 127.101562 149.582031 125.789062 149.976562 124.492188 C 150.371094 123.195312 150.824219 121.917969 151.34375 120.667969 C 151.863281 119.414062 152.441406 118.191406 153.082031 116.996094 C 153.71875 115.800781 154.414062 114.640625 155.167969 113.511719 C 155.921875 112.386719 156.726562 111.300781 157.585938 110.25 C 158.449219 109.203125 159.355469 108.199219 160.316406 107.242188 C 161.273438 106.285156 162.277344 105.375 163.324219 104.515625 C 164.371094 103.65625 165.457031 102.847656 166.585938 102.097656 C 167.710938 101.34375 168.875 100.648438 170.070312 100.007812 C 171.265625 99.371094 172.488281 98.789062 173.738281 98.273438 C 174.992188 97.753906 176.265625 97.296875 177.5625 96.902344 C 178.859375 96.511719 180.171875 96.179688 181.503906 95.917969 C 182.832031 95.652344 184.171875 95.453125 185.519531 95.320312 C 186.867188 95.1875 188.21875 95.121094 189.574219 95.121094 C 190.929688 95.121094 192.28125 95.1875 193.632812 95.320312 C 194.980469 95.453125 196.320312 95.652344 197.648438 95.917969 C 198.976562 96.179688 200.289062 96.511719 201.585938 96.902344 C 202.882812 97.296875 204.160156 97.753906 205.410156 98.273438 C 206.664062 98.789062 207.886719 99.371094 209.082031 100.007812 C 210.277344 100.648438 211.4375 101.34375 212.566406 102.097656 C 213.691406 102.847656 214.78125 103.65625 215.828125 104.515625 C 216.875 105.375 217.878906 106.285156 218.835938 107.242188 C 219.792969 108.199219 220.703125 109.203125 221.5625 110.25 C 222.421875 111.300781 223.230469 112.386719 223.984375 113.511719 C 224.734375 114.640625 225.429688 115.800781 226.070312 116.996094 C 226.710938 118.191406 227.289062 119.414062 227.804688 120.667969 C 228.324219 121.917969 228.78125 123.195312 229.175781 124.492188 C 229.566406 125.789062 229.898438 127.101562 230.160156 128.429688 C 230.425781 129.757812 230.625 131.097656 230.757812 132.445312 C 230.890625 133.796875 230.957031 135.148438 230.957031 136.503906 C 230.957031 137.859375 230.890625 139.210938 230.757812 140.558594 C 230.625 141.90625 230.425781 143.246094 230.160156 144.574219 C 229.898438 145.90625 229.566406 147.21875 229.175781 148.515625 C 228.78125 149.8125 228.324219 151.085938 227.804688 152.339844 C 227.289062 153.589844 226.710938 154.816406 226.070312 156.007812 C 225.429688 157.203125 224.734375 158.367188 223.984375 159.492188 C 223.230469 160.621094 222.421875 161.707031 221.5625 162.753906 C 220.703125 163.800781 219.792969 164.804688 218.835938 165.761719 C 217.878906 166.722656 216.875 167.632812 215.828125 168.492188 C 214.78125 169.351562 213.691406 170.15625 212.566406 170.910156 C 211.4375 171.664062 210.277344 172.359375 209.082031 172.996094 C 207.886719 173.636719 206.664062 174.214844 205.410156 174.734375 C 204.160156 175.253906 202.882812 175.707031 201.585938 176.101562 C 200.289062 176.496094 198.976562 176.824219 197.648438 177.089844 C 196.320312 177.351562 194.980469 177.550781 193.632812 177.683594 C 192.28125 177.816406 190.929688 177.882812 189.574219 177.882812 Z M 189.574219 177.882812 " fill-opacity="1" fill-rule="nonzero"/></svg>