<svg xmlns="http://www.w3.org/2000/svg" xmlns:xlink="http://www.w3.org/1999/xlink" width="500" zoomAndPan="magnify" viewBox="0 0 375 374.999991" height="500" preserveAspectRatio="xMidYMid meet" version="1.0"><path fill="#ffffff" d="M 128.269531 242.460938 L 31.855469 82.441406 C 11.628906 112.347656 -0.195312 148.378906 -0.195312 187.121094 C -0.195312 206.378906 2.730469 224.960938 8.15625 242.460938 Z M 128.269531 242.460938 " fill-opacity="1" fill-rule="nonzero"/><path fill="#ffffff" d="M 168.78125 107.703125 L 356.71875 107.703125 C 332.582031 56.363281 285.816406 17.722656 229.339844 4.664062 Z M 168.78125 107.703125 " fill-opacity="1" fill-rule="nonzero"/><path fill="#ffffff" d="M 108.449219 165.695312 L 205.414062 0.710938 C 199.390625 0.121094 193.292969 -0.195312 187.121094 -0.195312 C 131.273438 -0.195312 81.089844 24.402344 46.742188 63.296875 Z M 108.449219 165.695312 " fill-opacity="1" fill-rule="nonzero"/><path fill="#ffffff" d="M 147.511719 368.546875 L 206.832031 265.09375 L 16.871094 265.09375 C 41.785156 319.277344 91.789062 359.59375 151.929688 371.082031 Z M 147.511719 368.546875 " fill-opacity="1" fill-rule="nonzero"/><path fill="#ffffff" d="M 245.6875 130.335938 L 340.375 294.644531 C 361.8125 264.183594 374.449219 227.113281 374.449219 187.121094 C 374.449219 167.332031 371.339844 148.257812 365.621094 130.335938 Z M 245.6875 130.335938 " fill-opacity="1" fill-rule="nonzero"/><path fill="#ffffff" d="M 264.988281 209.175781 L 170.667969 373.679688 C 176.089844 374.15625 181.578125 374.441406 187.121094 374.441406 C 241.707031 374.441406 290.894531 350.96875 325.164062 313.597656 Z M 264.988281 209.175781 " fill-opacity="1" fill-rule="nonzero"/></svg>