<svg xmlns="http://www.w3.org/2000/svg" xmlns:xlink="http://www.w3.org/1999/xlink" width="500" zoomAndPan="magnify" viewBox="0 0 375 374.999991" height="500" preserveAspectRatio="xMidYMid meet" version="1.0"><path fill="#377987" d="M 315.707031 0 L 59.292969 0 C 26.605469 0 0 26.605469 0 59.292969 L 0 315.636719 C 0 348.324219 26.605469 374.929688 59.292969 374.929688 L 315.636719 374.929688 C 348.324219 374.929688 374.929688 348.324219 374.929688 315.636719 L 374.929688 59.292969 C 375 26.605469 348.394531 0 315.707031 0 Z M 339.621094 315.707031 C 339.621094 328.9375 328.867188 339.621094 315.707031 339.621094 L 59.292969 339.621094 C 46.0625 339.621094 35.378906 328.867188 35.378906 315.707031 L 35.378906 59.292969 C 35.378906 46.0625 46.132812 35.378906 59.292969 35.378906 L 315.636719 35.378906 C 328.867188 35.378906 339.550781 46.132812 339.550781 59.292969 L 339.550781 315.707031 Z M 339.621094 315.707031 " fill-opacity="1" fill-rule="nonzero"/><path fill="#377987" d="M 84.90625 187.5 C 84.90625 244.105469 130.894531 290.09375 187.5 290.09375 C 244.105469 290.09375 290.09375 244.105469 290.09375 187.5 C 284.503906 51.4375 90.566406 51.367188 84.90625 187.5 Z M 120.28125 187.5 C 120.28125 150.425781 150.425781 120.28125 187.5 120.28125 C 224.574219 120.28125 254.71875 150.425781 254.71875 187.5 C 251.039062 276.652344 123.960938 276.652344 120.28125 187.5 Z M 120.28125 187.5 " fill-opacity="1" fill-rule="nonzero"/><path fill="#377987" d="M 275.945312 81.367188 C 276.507812 104.71875 310.824219 104.71875 311.390625 81.367188 C 310.753906 58.019531 276.507812 58.019531 275.945312 81.367188 Z M 275.945312 81.367188 " fill-opacity="1" fill-rule="nonzero"/></svg>