<svg xmlns="http://www.w3.org/2000/svg" xmlns:xlink="http://www.w3.org/1999/xlink" width="500" zoomAndPan="magnify" viewBox="0 0 375 374.999991" height="500" preserveAspectRatio="xMidYMid meet" version="1.0"><defs><g/><clipPath id="b26161bede"><path d="M 220 207.042969 L 350 207.042969 L 350 276 L 220 276 Z M 220 207.042969 " clip-rule="nonzero"/></clipPath><clipPath id="5de8a44f4f"><path d="M 250.710938 124.496094 L 336.960938 124.496094 L 336.960938 234.746094 L 250.710938 234.746094 Z M 250.710938 124.496094 " clip-rule="nonzero"/></clipPath></defs><g fill="#000000" fill-opacity="1"><g transform="translate(23.730209, 203.997712)"><g><path d="M 44.859375 0 L 35.140625 0 L 31.625 -10.78125 L 13.71875 -10.78125 L 10.203125 0 L 0.703125 0 L 16.84375 -46.75 L 28.71875 -46.75 Z M 22.21875 -37 L 16.21875 -18.546875 L 29.0625 -18.546875 L 23.015625 -37 Z M 22.21875 -37 "/></g></g></g><g fill="#000000" fill-opacity="1"><g transform="translate(81.992127, 203.997712)"><g><path d="M 37.46875 -46.75 L 37.46875 -38.984375 L 23.984375 -38.984375 L 23.984375 0 L 14.765625 0 L 14.765625 -38.984375 L 1.28125 -38.984375 L 1.28125 -46.75 Z M 37.46875 -46.75 "/></g></g></g><g fill="#000000" fill-opacity="1"><g transform="translate(133.444301, 203.997712)"><g><path d="M 15.3125 -20.53125 L 15.3125 -7.734375 L 37.640625 -7.734375 L 37.640625 0 L 6.078125 0 L 6.078125 -46.75 L 37.125 -46.75 L 37.125 -39.015625 L 15.3125 -39.015625 L 15.3125 -28.078125 L 34.375 -28.078125 L 34.375 -20.53125 Z M 15.3125 -20.53125 "/></g></g></g><g fill="#000000" fill-opacity="1"><g transform="translate(186.335158, 203.997712)"><g><path d="M 22.890625 -46.75 C 30.484375 -46.75 36.273438 -44.785156 40.265625 -40.859375 C 44.265625 -36.941406 46.265625 -31.113281 46.265625 -23.375 C 46.265625 -15.65625 44.265625 -9.828125 40.265625 -5.890625 C 36.273438 -1.960938 30.484375 0 22.890625 0 L 6.078125 0 L 6.078125 -46.75 Z M 22.34375 -7.765625 C 27.164062 -7.765625 30.769531 -8.992188 33.15625 -11.453125 C 35.539062 -13.921875 36.734375 -17.894531 36.734375 -23.375 C 36.734375 -28.851562 35.539062 -32.820312 33.15625 -35.28125 C 30.769531 -37.75 27.164062 -38.984375 22.34375 -38.984375 L 15.3125 -38.984375 L 15.3125 -7.765625 Z M 22.34375 -7.765625 "/></g></g></g><g clip-path="url(#b26161bede)"><path fill="#000000" d="M 220.730469 233.425781 C 220.730469 245.332031 237.457031 254.9375 264.378906 258.523438 C 266.214844 258.792969 267.984375 257.441406 268.1875 255.613281 C 268.460938 253.789062 267.101562 252.027344 265.265625 251.824219 C 240.515625 248.511719 227.527344 240.054688 227.527344 233.425781 C 227.527344 233.085938 227.527344 232.75 227.597656 232.410156 C 227.664062 232.003906 227.800781 231.597656 227.9375 231.195312 C 228.140625 230.71875 228.34375 230.246094 228.617188 229.839844 C 228.890625 229.367188 229.296875 228.894531 229.636719 228.488281 C 230.113281 227.945312 230.589844 227.472656 231.066406 227.066406 C 231.609375 226.527344 232.289062 226.050781 232.902344 225.578125 C 233.582031 225.105469 234.328125 224.5625 235.074219 224.15625 C 235.890625 223.683594 236.707031 223.210938 237.589844 222.738281 C 238.542969 222.265625 239.496094 221.789062 240.449219 221.382812 C 241.46875 220.910156 242.554688 220.503906 243.644531 220.097656 C 244.800781 219.695312 245.953125 219.289062 247.109375 218.949219 C 248.335938 218.542969 249.558594 218.207031 250.851562 217.867188 C 252.140625 217.527344 253.5 217.191406 254.792969 216.917969 C 256.152344 216.582031 257.582031 216.3125 258.941406 216.039062 C 260.367188 215.769531 261.863281 215.5 263.359375 215.296875 C 264.855469 215.09375 266.421875 214.890625 267.914062 214.6875 C 269.480469 214.484375 271.042969 214.347656 272.675781 214.214844 C 274.308594 214.078125 275.9375 213.945312 277.570312 213.875 C 279.203125 213.875 280.902344 213.875 282.601562 213.808594 C 284.300781 213.808594 286.070312 213.808594 287.769531 213.875 C 289.46875 213.875 291.101562 213.945312 292.800781 214.078125 C 294.433594 214.144531 296.0625 214.28125 297.695312 214.484375 C 299.257812 214.621094 300.890625 214.824219 302.457031 215.027344 C 303.949219 215.160156 305.445312 215.363281 307.011719 215.632812 C 308.4375 215.835938 309.933594 216.109375 311.363281 216.378906 C 312.789062 216.648438 314.148438 216.988281 315.578125 217.324219 C 316.871094 217.664062 318.230469 218.003906 319.519531 218.339844 C 320.746094 218.679688 322.035156 219.015625 323.261719 219.421875 C 324.417969 219.828125 325.570312 220.234375 326.726562 220.640625 C 327.746094 221.046875 328.835938 221.519531 329.855469 221.925781 C 330.808594 222.332031 331.757812 222.804688 332.710938 223.277344 C 333.59375 223.753906 334.480469 224.226562 335.292969 224.765625 C 336.042969 225.242188 336.789062 225.714844 337.46875 226.1875 C 338.152344 226.660156 338.761719 227.203125 339.304688 227.675781 C 339.851562 228.148438 340.324219 228.691406 340.800781 229.164062 C 341.210938 229.636719 341.550781 230.109375 341.890625 230.585938 C 342.160156 231.058594 342.433594 231.464844 342.636719 231.9375 C 342.773438 232.34375 342.910156 232.816406 342.976562 233.222656 C 343.113281 233.628906 343.113281 234.035156 343.113281 234.441406 C 342.976562 240.933594 330.261719 248.917969 306.332031 251.960938 L 306.332031 237.621094 C 306.332031 235.859375 304.222656 234.980469 302.929688 236.199219 L 284.640625 254.125 C 283.824219 254.871094 283.824219 256.15625 284.640625 256.96875 L 303 274.894531 C 304.289062 276.109375 306.398438 275.230469 306.398438 273.472656 L 306.398438 258.792969 C 332.984375 255.613281 349.640625 246.347656 349.914062 234.574219 C 349.914062 233.695312 349.84375 232.75 349.707031 231.871094 C 349.503906 230.992188 349.234375 230.179688 348.894531 229.300781 C 348.554688 228.488281 348.078125 227.675781 347.601562 226.933594 C 347.125 226.1875 346.511719 225.445312 345.902344 224.699219 C 345.289062 223.957031 344.542969 223.277344 343.863281 222.667969 C 343.113281 221.992188 342.367188 221.382812 341.550781 220.777344 C 340.667969 220.167969 339.78125 219.558594 338.898438 219.015625 C 337.878906 218.40625 336.859375 217.867188 335.90625 217.324219 C 334.886719 216.785156 333.800781 216.242188 332.644531 215.769531 C 331.488281 215.230469 330.332031 214.753906 329.109375 214.347656 C 327.882812 213.875 326.59375 213.402344 325.367188 212.996094 C 324.007812 212.589844 322.714844 212.183594 321.355469 211.777344 C 319.929688 211.371094 318.570312 211.035156 317.140625 210.695312 C 315.644531 210.359375 314.21875 210.019531 312.722656 209.75 C 311.15625 209.480469 309.59375 209.207031 308.097656 208.9375 C 306.535156 208.667969 304.902344 208.464844 303.269531 208.261719 C 301.640625 208.058594 299.941406 207.855469 298.308594 207.71875 C 296.609375 207.585938 294.90625 207.449219 293.207031 207.3125 C 291.441406 207.246094 289.742188 207.109375 287.972656 207.109375 C 286.136719 207.042969 284.300781 207.042969 282.464844 207.042969 C 280.699219 207.042969 279 207.109375 277.230469 207.179688 C 275.53125 207.246094 273.832031 207.382812 272.132812 207.515625 C 270.5 207.652344 268.800781 207.789062 267.167969 207.992188 C 265.605469 208.195312 263.972656 208.394531 262.339844 208.597656 C 260.777344 208.800781 259.28125 209.074219 257.71875 209.34375 C 256.222656 209.613281 254.792969 209.882812 253.296875 210.222656 C 251.871094 210.5625 250.511719 210.898438 249.082031 211.238281 C 247.722656 211.574219 246.429688 211.980469 245.070312 212.386719 C 243.847656 212.929688 242.625 213.335938 241.332031 213.808594 C 240.109375 214.28125 238.953125 214.6875 237.796875 215.230469 C 236.707031 215.703125 235.621094 216.175781 234.53125 216.71875 C 233.511719 217.191406 232.558594 217.800781 231.539062 218.339844 C 230.65625 218.882812 229.703125 219.492188 228.890625 220.097656 C 228.074219 220.707031 227.257812 221.316406 226.507812 221.992188 C 225.761719 222.667969 225.148438 223.347656 224.46875 224.023438 C 223.859375 224.699219 223.3125 225.445312 222.769531 226.253906 C 222.292969 227.066406 221.886719 227.878906 221.546875 228.691406 C 221.207031 229.503906 220.933594 230.382812 220.796875 231.261719 C 220.796875 232.003906 220.730469 232.683594 220.730469 233.425781 Z M 220.730469 233.425781 " fill-opacity="1" fill-rule="evenodd"/></g><g clip-path="url(#5de8a44f4f)"><path fill="#000000" d="M 321.917969 224.296875 L 321.917969 207.144531 C 322.230469 207.054688 322.546875 206.875 322.816406 206.738281 C 324.96875 205.570312 327.304688 204.671875 329.6875 204.089844 C 331.839844 203.550781 334.3125 203.101562 335.65625 201.351562 C 336.734375 199.914062 336.78125 197.9375 336.78125 196.140625 C 336.78125 190.078125 336.78125 184.015625 336.78125 177.910156 C 336.78125 173.105469 336.78125 168.253906 336.78125 163.449219 C 336.78125 162.460938 336.960938 161.207031 336.734375 160.261719 C 336.511719 159.453125 335.925781 158.691406 335.34375 158.105469 C 334.132812 156.847656 332.46875 156.042969 330.851562 155.503906 C 328.25 154.648438 325.417969 154.246094 323.039062 152.898438 C 322.679688 152.71875 322.320312 152.492188 321.960938 152.359375 L 321.960938 135.25 C 321.960938 129.324219 317.15625 124.5625 311.273438 124.5625 L 261.386719 124.5625 C 255.457031 124.5625 250.699219 129.367188 250.699219 135.25 L 250.699219 224.339844 C 250.699219 230.269531 255.503906 235.027344 261.386719 235.027344 L 311.183594 235.027344 C 317.113281 234.984375 321.917969 230.179688 321.917969 224.296875 Z M 258.691406 179.75 C 258.691406 164.527344 271.039062 152.179688 286.261719 152.179688 C 301.484375 152.179688 313.835938 164.527344 313.835938 179.75 C 313.835938 194.972656 301.484375 207.320312 286.261719 207.320312 C 271.039062 207.320312 258.691406 194.972656 258.691406 179.75 Z M 304.941406 222.007812 C 304.941406 219.894531 306.648438 218.1875 308.761719 218.1875 C 310.871094 218.1875 312.578125 219.894531 312.578125 222.007812 C 312.578125 224.117188 310.871094 225.824219 308.761719 225.824219 C 306.648438 225.824219 304.941406 224.117188 304.941406 222.007812 Z M 304.941406 222.007812 " fill-opacity="1" fill-rule="nonzero"/></g><path fill="#000000" d="M 286.261719 196.5 C 285.714844 196.5 285.167969 196.472656 284.621094 196.417969 C 284.074219 196.367188 283.535156 196.285156 282.996094 196.179688 C 282.457031 196.070312 281.925781 195.9375 281.402344 195.777344 C 280.875 195.621094 280.359375 195.433594 279.851562 195.226562 C 279.347656 195.015625 278.851562 194.78125 278.367188 194.523438 C 277.882812 194.265625 277.414062 193.980469 276.957031 193.675781 C 276.5 193.371094 276.0625 193.046875 275.636719 192.699219 C 275.214844 192.351562 274.808594 191.980469 274.417969 191.59375 C 274.03125 191.207031 273.664062 190.800781 273.316406 190.375 C 272.96875 189.953125 272.640625 189.511719 272.335938 189.054688 C 272.03125 188.601562 271.75 188.128906 271.492188 187.644531 C 271.234375 187.164062 271 186.667969 270.789062 186.160156 C 270.578125 185.652344 270.394531 185.136719 270.234375 184.613281 C 270.074219 184.089844 269.941406 183.554688 269.835938 183.019531 C 269.726562 182.480469 269.648438 181.9375 269.59375 181.390625 C 269.539062 180.847656 269.511719 180.300781 269.511719 179.75 C 269.511719 179.203125 269.539062 178.65625 269.59375 178.109375 C 269.648438 177.5625 269.726562 177.019531 269.835938 176.484375 C 269.941406 175.945312 270.074219 175.414062 270.234375 174.890625 C 270.394531 174.363281 270.578125 173.847656 270.789062 173.339844 C 271 172.835938 271.234375 172.339844 271.492188 171.855469 C 271.75 171.371094 272.03125 170.902344 272.335938 170.445312 C 272.640625 169.988281 272.96875 169.550781 273.316406 169.125 C 273.664062 168.699219 274.03125 168.296875 274.417969 167.90625 C 274.808594 167.519531 275.214844 167.152344 275.636719 166.804688 C 276.0625 166.457031 276.5 166.128906 276.957031 165.824219 C 277.414062 165.519531 277.882812 165.238281 278.367188 164.980469 C 278.851562 164.71875 279.347656 164.484375 279.851562 164.277344 C 280.359375 164.066406 280.875 163.882812 281.402344 163.722656 C 281.925781 163.5625 282.457031 163.429688 282.996094 163.324219 C 283.535156 163.214844 284.074219 163.136719 284.621094 163.082031 C 285.167969 163.027344 285.714844 163 286.261719 163 C 286.8125 163 287.359375 163.027344 287.90625 163.082031 C 288.449219 163.136719 288.992188 163.214844 289.53125 163.324219 C 290.070312 163.429688 290.601562 163.5625 291.125 163.722656 C 291.648438 163.882812 292.164062 164.066406 292.671875 164.277344 C 293.179688 164.484375 293.675781 164.71875 294.160156 164.980469 C 294.640625 165.238281 295.113281 165.519531 295.566406 165.824219 C 296.023438 166.128906 296.464844 166.457031 296.886719 166.804688 C 297.3125 167.152344 297.71875 167.519531 298.105469 167.90625 C 298.496094 168.296875 298.863281 168.699219 299.210938 169.125 C 299.558594 169.550781 299.882812 169.988281 300.191406 170.445312 C 300.496094 170.902344 300.777344 171.371094 301.035156 171.855469 C 301.292969 172.339844 301.527344 172.835938 301.738281 173.339844 C 301.945312 173.847656 302.132812 174.363281 302.289062 174.890625 C 302.449219 175.414062 302.582031 175.945312 302.691406 176.484375 C 302.796875 177.019531 302.878906 177.5625 302.929688 178.109375 C 302.984375 178.65625 303.011719 179.203125 303.011719 179.75 C 303.011719 180.300781 302.984375 180.847656 302.929688 181.390625 C 302.878906 181.9375 302.796875 182.480469 302.691406 183.019531 C 302.582031 183.554688 302.449219 184.089844 302.289062 184.613281 C 302.132812 185.136719 301.945312 185.652344 301.738281 186.160156 C 301.527344 186.667969 301.292969 187.164062 301.035156 187.644531 C 300.777344 188.128906 300.496094 188.601562 300.191406 189.054688 C 299.882812 189.511719 299.558594 189.953125 299.210938 190.375 C 298.863281 190.800781 298.496094 191.207031 298.105469 191.59375 C 297.71875 191.980469 297.3125 192.351562 296.886719 192.699219 C 296.464844 193.046875 296.023438 193.371094 295.566406 193.675781 C 295.113281 193.980469 294.640625 194.265625 294.160156 194.523438 C 293.675781 194.78125 293.179688 195.015625 292.671875 195.226562 C 292.164062 195.433594 291.648438 195.621094 291.125 195.777344 C 290.601562 195.9375 290.070312 196.070312 289.53125 196.179688 C 288.992188 196.285156 288.449219 196.367188 287.90625 196.417969 C 287.359375 196.472656 286.8125 196.5 286.261719 196.5 Z M 286.261719 196.5 " fill-opacity="1" fill-rule="nonzero"/></svg>