<svg xmlns="http://www.w3.org/2000/svg" xmlns:xlink="http://www.w3.org/1999/xlink" width="500" zoomAndPan="magnify" viewBox="0 0 375 374.999991" height="500" preserveAspectRatio="xMidYMid meet" version="1.0"><defs><g/><clipPath id="6f0e77fc85"><path d="M 257.042969 132.195312 L 343.292969 132.195312 L 343.292969 242.445312 L 257.042969 242.445312 Z M 257.042969 132.195312 " clip-rule="nonzero"/></clipPath></defs><g fill="#000000" fill-opacity="1"><g transform="translate(32.962168, 211.697106)"><g><path d="M 44.859375 0 L 35.140625 0 L 31.625 -10.78125 L 13.71875 -10.78125 L 10.203125 0 L 0.703125 0 L 16.84375 -46.75 L 28.71875 -46.75 Z M 22.21875 -37 L 16.21875 -18.546875 L 29.0625 -18.546875 L 23.015625 -37 Z M 22.21875 -37 "/></g></g></g><g fill="#000000" fill-opacity="1"><g transform="translate(91.224085, 211.697106)"><g><path d="M 37.46875 -46.75 L 37.46875 -38.984375 L 23.984375 -38.984375 L 23.984375 0 L 14.765625 0 L 14.765625 -38.984375 L 1.28125 -38.984375 L 1.28125 -46.75 Z M 37.46875 -46.75 "/></g></g></g><g fill="#000000" fill-opacity="1"><g transform="translate(142.67626, 211.697106)"><g><path d="M 15.3125 -20.53125 L 15.3125 -7.734375 L 37.640625 -7.734375 L 37.640625 0 L 6.078125 0 L 6.078125 -46.75 L 37.125 -46.75 L 37.125 -39.015625 L 15.3125 -39.015625 L 15.3125 -28.078125 L 34.375 -28.078125 L 34.375 -20.53125 Z M 15.3125 -20.53125 "/></g></g></g><g fill="#000000" fill-opacity="1"><g transform="translate(195.567116, 211.697106)"><g><path d="M 22.890625 -46.75 C 30.484375 -46.75 36.273438 -44.785156 40.265625 -40.859375 C 44.265625 -36.941406 46.265625 -31.113281 46.265625 -23.375 C 46.265625 -15.65625 44.265625 -9.828125 40.265625 -5.890625 C 36.273438 -1.960938 30.484375 0 22.890625 0 L 6.078125 0 L 6.078125 -46.75 Z M 22.34375 -7.765625 C 27.164062 -7.765625 30.769531 -8.992188 33.15625 -11.453125 C 35.539062 -13.921875 36.734375 -17.894531 36.734375 -23.375 C 36.734375 -28.851562 35.539062 -32.820312 33.15625 -35.28125 C 30.769531 -37.75 27.164062 -38.984375 22.34375 -38.984375 L 15.3125 -38.984375 L 15.3125 -7.765625 Z M 22.34375 -7.765625 "/></g></g></g><g clip-path="url(#6f0e77fc85)"><path fill="#1d1d1d" d="M 328.25 231.679688 L 328.25 214.578125 C 328.566406 214.488281 328.878906 214.3125 329.148438 214.175781 C 331.304688 213.011719 333.640625 212.117188 336.019531 211.535156 C 338.175781 211 340.644531 210.550781 341.992188 208.804688 C 343.066406 207.371094 343.113281 205.402344 343.113281 203.613281 C 343.113281 197.570312 343.113281 191.527344 343.113281 185.4375 C 343.113281 180.648438 343.113281 175.816406 343.113281 171.027344 C 343.113281 170.042969 343.292969 168.789062 343.066406 167.847656 C 342.84375 167.042969 342.261719 166.28125 341.675781 165.699219 C 340.464844 164.445312 338.804688 163.640625 337.1875 163.101562 C 334.582031 162.253906 331.753906 161.851562 329.375 160.507812 C 329.015625 160.328125 328.65625 160.105469 328.296875 159.96875 L 328.296875 142.914062 C 328.296875 137.007812 323.492188 132.261719 317.609375 132.261719 L 267.726562 132.261719 C 261.800781 132.261719 257.042969 137.050781 257.042969 142.914062 L 257.042969 231.722656 C 257.042969 237.632812 261.847656 242.375 267.726562 242.375 L 317.519531 242.375 C 323.449219 242.332031 328.25 237.542969 328.25 231.679688 Z M 265.035156 187.273438 C 265.035156 172.101562 277.382812 159.789062 292.601562 159.789062 C 307.824219 159.789062 320.167969 172.101562 320.167969 187.273438 C 320.167969 202.449219 307.824219 214.757812 292.601562 214.757812 C 277.382812 214.757812 265.035156 202.449219 265.035156 187.273438 Z M 311.28125 229.394531 C 311.28125 227.292969 312.984375 225.589844 315.097656 225.589844 C 317.207031 225.589844 318.914062 227.292969 318.914062 229.394531 C 318.914062 231.5 317.207031 233.199219 315.097656 233.199219 C 312.984375 233.199219 311.28125 231.5 311.28125 229.394531 Z M 311.28125 229.394531 " fill-opacity="1" fill-rule="nonzero"/></g><path fill="#1d1d1d" d="M 292.601562 203.972656 C 292.054688 203.972656 291.507812 203.945312 290.960938 203.890625 C 290.414062 203.835938 289.871094 203.757812 289.335938 203.648438 C 288.796875 203.542969 288.265625 203.410156 287.742188 203.25 C 287.214844 203.09375 286.699219 202.910156 286.195312 202.699219 C 285.6875 202.492188 285.191406 202.257812 284.707031 202 C 284.222656 201.742188 283.753906 201.460938 283.296875 201.15625 C 282.84375 200.851562 282.402344 200.527344 281.976562 200.179688 C 281.554688 199.832031 281.148438 199.46875 280.761719 199.082031 C 280.371094 198.695312 280.003906 198.289062 279.65625 197.867188 C 279.308594 197.445312 278.980469 197.003906 278.675781 196.550781 C 278.371094 196.097656 278.089844 195.628906 277.832031 195.144531 C 277.574219 194.664062 277.339844 194.167969 277.128906 193.664062 C 276.921875 193.160156 276.734375 192.644531 276.578125 192.121094 C 276.417969 191.597656 276.285156 191.066406 276.175781 190.53125 C 276.070312 189.996094 275.988281 189.457031 275.9375 188.910156 C 275.882812 188.367188 275.855469 187.820312 275.855469 187.273438 C 275.855469 186.726562 275.882812 186.183594 275.9375 185.636719 C 275.988281 185.09375 276.070312 184.554688 276.175781 184.015625 C 276.285156 183.480469 276.417969 182.953125 276.578125 182.429688 C 276.734375 181.90625 276.921875 181.390625 277.128906 180.886719 C 277.339844 180.378906 277.574219 179.886719 277.832031 179.402344 C 278.089844 178.921875 278.371094 178.453125 278.675781 178 C 278.980469 177.542969 279.308594 177.105469 279.65625 176.683594 C 280.003906 176.261719 280.371094 175.855469 280.761719 175.46875 C 281.148438 175.082031 281.554688 174.714844 281.976562 174.367188 C 282.402344 174.019531 282.84375 173.695312 283.296875 173.390625 C 283.753906 173.089844 284.222656 172.808594 284.707031 172.550781 C 285.191406 172.292969 285.6875 172.058594 286.195312 171.847656 C 286.699219 171.640625 287.214844 171.457031 287.742188 171.296875 C 288.265625 171.136719 288.796875 171.007812 289.335938 170.898438 C 289.871094 170.792969 290.414062 170.710938 290.960938 170.660156 C 291.507812 170.605469 292.054688 170.578125 292.601562 170.578125 C 293.152344 170.578125 293.699219 170.605469 294.242188 170.660156 C 294.789062 170.710938 295.332031 170.792969 295.871094 170.898438 C 296.40625 171.007812 296.9375 171.136719 297.464844 171.296875 C 297.988281 171.457031 298.503906 171.640625 299.011719 171.847656 C 299.519531 172.058594 300.011719 172.292969 300.496094 172.550781 C 300.980469 172.808594 301.449219 173.089844 301.90625 173.390625 C 302.363281 173.695312 302.800781 174.019531 303.226562 174.367188 C 303.652344 174.714844 304.054688 175.082031 304.445312 175.46875 C 304.832031 175.855469 305.199219 176.261719 305.546875 176.683594 C 305.894531 177.105469 306.222656 177.542969 306.527344 178 C 306.832031 178.453125 307.113281 178.921875 307.371094 179.402344 C 307.628906 179.886719 307.863281 180.378906 308.074219 180.886719 C 308.285156 181.390625 308.46875 181.90625 308.628906 182.429688 C 308.789062 182.953125 308.921875 183.480469 309.027344 184.015625 C 309.132812 184.554688 309.214844 185.09375 309.269531 185.636719 C 309.324219 186.183594 309.347656 186.726562 309.347656 187.273438 C 309.347656 187.820312 309.324219 188.367188 309.269531 188.910156 C 309.214844 189.457031 309.132812 189.996094 309.027344 190.53125 C 308.921875 191.066406 308.789062 191.597656 308.628906 192.121094 C 308.46875 192.644531 308.285156 193.160156 308.074219 193.664062 C 307.863281 194.167969 307.628906 194.664062 307.371094 195.144531 C 307.113281 195.628906 306.832031 196.097656 306.527344 196.550781 C 306.222656 197.003906 305.894531 197.445312 305.546875 197.867188 C 305.199219 198.289062 304.832031 198.695312 304.445312 199.082031 C 304.054688 199.46875 303.652344 199.832031 303.226562 200.179688 C 302.800781 200.527344 302.363281 200.851562 301.90625 201.15625 C 301.449219 201.460938 300.980469 201.742188 300.496094 202 C 300.011719 202.257812 299.519531 202.492188 299.011719 202.699219 C 298.503906 202.910156 297.988281 203.09375 297.464844 203.25 C 296.9375 203.410156 296.40625 203.542969 295.871094 203.648438 C 295.332031 203.757812 294.789062 203.835938 294.242188 203.890625 C 293.699219 203.945312 293.152344 203.972656 292.601562 203.972656 Z M 292.601562 203.972656 " fill-opacity="1" fill-rule="nonzero"/></svg>