<svg xmlns="http://www.w3.org/2000/svg" xmlns:xlink="http://www.w3.org/1999/xlink" width="500" zoomAndPan="magnify" viewBox="0 0 375 374.999991" height="500" preserveAspectRatio="xMidYMid meet" version="1.0"><path fill="#377987" d="M 192.011719 58.5625 C 183.039062 58.164062 174.261719 61.398438 167.664062 67.46875 C 161.035156 73.570312 157.140625 82.050781 156.8125 91.058594 C 156.480469 100.03125 159.746094 108.773438 165.917969 115.339844 C 172.054688 121.90625 180.566406 125.730469 189.539062 125.996094 C 198.546875 126.261719 207.253906 122.929688 213.789062 116.757812 C 220.320312 110.554688 224.082031 102.011719 224.28125 93.003906 C 224.511719 84.195312 221.277344 75.617188 215.207031 69.183594 C 209.203125 62.75 200.855469 58.957031 192.011719 58.660156 Z M 171.789062 141.207031 L 138.632812 141.207031 L 138.664062 141.207031 C 136.222656 141.238281 133.847656 141.570312 131.507812 142.226562 C 128.667969 142.820312 126.523438 145.097656 126.09375 147.96875 C 125.304688 151.101562 126.886719 154.335938 129.789062 155.625 C 133.386719 157.304688 137.214844 158.328125 141.140625 158.691406 C 151.464844 159.152344 155.625 163.707031 154.074219 174.328125 C 151.167969 194.191406 147.277344 213.953125 143.910156 233.78125 C 141.667969 247.175781 139.753906 260.570312 137.578125 273.964844 C 134.640625 291.980469 151.433594 308.902344 164.761719 311.113281 C 172.679688 312.234375 180.664062 312.730469 188.648438 312.664062 C 205.738281 312.632812 222.070312 305.539062 233.78125 293.101562 C 235.894531 291.121094 237.507812 288.648438 238.433594 285.910156 C 238.863281 283.53125 238.335938 281.058594 236.847656 279.078125 C 235.132812 277.992188 232.988281 277.757812 231.042969 278.453125 C 227.972656 279.476562 225.269531 281.554688 222.300781 282.839844 C 218.835938 284.457031 215.171875 285.710938 211.445312 286.535156 C 208.441406 287.292969 205.242188 286.667969 202.734375 284.851562 C 200.226562 283.039062 198.613281 280.199219 198.347656 277.097656 C 197.722656 273.667969 197.621094 270.105469 198.050781 266.640625 C 199.304688 257.996094 201.085938 249.453125 202.636719 240.941406 C 206.859375 217.613281 211.179688 194.289062 215.535156 170.929688 C 216.722656 164.53125 218.738281 158.261719 217.382812 151.53125 C 217.1875 148.5625 215.765625 145.792969 213.523438 143.84375 C 211.246094 141.898438 208.246094 140.941406 205.277344 141.207031 Z M 186.007812 0 C 222.761719 0.03125 258.691406 10.984375 289.207031 31.441406 C 319.757812 51.894531 343.546875 80.960938 357.566406 114.945312 C 371.589844 148.925781 375.21875 186.304688 367.992188 222.367188 C 360.765625 258.394531 342.984375 291.484375 316.953125 317.449219 C 290.921875 343.378906 257.765625 361.03125 221.671875 368.125 C 185.613281 375.21875 148.265625 371.457031 114.316406 357.304688 C 80.402344 343.183594 51.402344 319.296875 31.078125 288.679688 C 10.722656 258.0625 -0.0976562 222.101562 0 185.316406 C 0.132812 136.09375 19.796875 88.945312 54.667969 54.171875 C 89.539062 19.433594 136.785156 -0.0664062 186.007812 0 " fill-opacity="1" fill-rule="nonzero"/></svg>