<svg xmlns="http://www.w3.org/2000/svg" xmlns:xlink="http://www.w3.org/1999/xlink" width="500" zoomAndPan="magnify" viewBox="0 0 375 374.999991" height="500" preserveAspectRatio="xMidYMid meet" version="1.0"><defs><clipPath id="1a75ee2e5c"><path d="M 0 19.921875 L 375 19.921875 L 375 355.171875 L 0 355.171875 Z M 0 19.921875 " clip-rule="nonzero"/></clipPath></defs><g clip-path="url(#1a75ee2e5c)"><path fill="#377987" d="M 350.234375 289.777344 C 350.234375 312.183594 332.007812 330.414062 309.601562 330.414062 L 65.371094 330.414062 C 42.964844 330.414062 24.738281 312.183594 24.738281 289.777344 L 24.738281 85.257812 C 24.738281 62.851562 42.964844 44.621094 65.371094 44.621094 L 309.601562 44.621094 C 332.007812 44.621094 350.234375 62.851562 350.234375 85.257812 Z M 374.929688 289.777344 L 374.929688 85.257812 C 374.929688 49.234375 345.621094 19.929688 309.601562 19.929688 L 65.371094 19.929688 C 29.347656 19.929688 0.0429688 49.234375 0.0429688 85.257812 L 0.0429688 289.777344 C 0.0429688 325.800781 29.347656 355.109375 65.371094 355.109375 L 309.601562 355.109375 C 345.621094 355.109375 374.929688 325.800781 374.929688 289.777344 " fill-opacity="1" fill-rule="nonzero"/></g><path fill="#377987" d="M 254.414062 200.332031 L 150.992188 252.769531 C 142.398438 257.128906 132.230469 250.882812 132.234375 241.246094 L 132.246094 136.335938 C 132.25 126.699219 142.417969 120.457031 151.011719 124.816406 L 254.417969 177.289062 C 263.851562 182.074219 263.847656 195.546875 254.414062 200.332031 " fill-opacity="1" fill-rule="nonzero"/></svg>